<svg width="24" height="16" viewBox="0 0 24 16" fill="none" xmlns="http://www.w3.org/2000/svg">
<path fill-rule="evenodd" clip-rule="evenodd" d="M2 0C0.895431 0 0 0.895431 0 2V14C0 15.1046 0.89543 16 2 16H22C23.1046 16 24 15.1046 24 14V2C24 0.895431 23.1046 0 22 0H2ZM7.50549 4H7.08791H6.37912H5.97253L3 12H4.75275L5.30617 10.3132H8.18145L8.73626 12H10.4945L7.50549 4ZM7.75675 9.02198H5.72979L6.74199 5.93682L7.75675 9.02198ZM14.3516 9.14835H12.8846V12H11.2363V4H14.3516C14.978 4 15.5147 4.11355 15.9615 4.34066C16.4121 4.5641 16.7564 4.87363 16.9945 5.26923C17.2326 5.66483 17.3516 6.11722 17.3516 6.62637C17.3516 7.14286 17.2326 7.58974 16.9945 7.96703C16.7564 8.34432 16.4121 8.63553 15.9615 8.84066C15.5147 9.04579 14.978 9.14835 14.3516 9.14835ZM12.8846 5.29121V7.86264H14.3516C14.6667 7.86264 14.9231 7.81136 15.1209 7.70879C15.3187 7.60256 15.4634 7.45604 15.5549 7.26923C15.6465 7.08242 15.6923 6.87179 15.6923 6.63736C15.6923 6.39927 15.6465 6.17766 15.5549 5.97253C15.4634 5.7674 15.3187 5.60256 15.1209 5.47802C14.9231 5.35348 14.6667 5.29121 14.3516 5.29121H12.8846ZM20.2418 12V4H18.5989V12H20.2418Z" fill="#8BB4D5"/>
</svg>
